<?xml version="1.0" encoding="UTF-8"?>
<svg width="24px" height="24px" viewBox="0 0 24 24" version="1.1" xmlns="http://www.w3.org/2000/svg" xmlns:xlink="http://www.w3.org/1999/xlink">
    <title>icons/delivery</title>
    <g id="icons/delivery" stroke="none" stroke-width="1" fill="none" fill-rule="evenodd">
        <rect id="Container" fill="#D8D8D8" opacity="0" x="0" y="0" width="24" height="24"></rect>
        <g id="noun_delivery_2964595" transform="translate(1.000000, 5.000000)" fill="#000000" fill-rule="nonzero">
            <path d="M16.8886214,14.7094369 C15.9511257,14.7094369 15.1911503,13.9494281 15.1911503,13.0119324 C15.1911503,12.0744368 15.9511506,11.3144528 16.8886462,11.3144528 C17.8261418,11.3144528 18.5861344,12.0744446 18.5861344,13.0119402 C18.5861344,13.4621477 18.4072917,13.8939162 18.0889454,14.2122594 C17.7705991,14.5306027 17.3388289,14.7094369 16.8886214,14.7094369 L16.8886214,14.7094369 Z M21.1359223,8.38665786 L21.1359223,12.0997095 C21.1359223,12.2840781 21.062684,12.4608958 20.9323157,12.5912641 C20.8019474,12.7216323 20.6251297,12.7948707 20.4407612,12.7948707 L19.5070726,12.7948707 C19.3952338,11.4317548 18.2563106,10.3824491 16.8886144,10.3824491 C15.5209182,10.3824491 14.3819949,11.4317548 14.2701561,12.7948707 L7.86704932,12.7948707 C7.75514525,11.4317431 6.61619123,10.3824585 5.24847806,10.3824585 C3.88076489,10.3824585 2.74181086,11.4317431 2.6299068,12.7948707 L2.29227573,12.7948707 C1.90834671,12.7948707 1.59712107,12.4836106 1.59712621,12.0996816 L1.59712621,8.45068427 L4.25409631,8.45068427 C4.53481319,8.45066812 4.80245053,8.33202242 4.99096714,8.12402374 C5.17948375,7.91602506 5.27132157,7.63804599 5.24381903,7.35867961 C5.1792839,6.83990496 4.73407472,6.45320214 4.21137398,6.46191146 L0.945227961,6.46191146 C0.666175961,6.46239371 0.408114701,6.31379813 0.268449301,6.07221207 C0.128783901,5.830626 0.128783901,5.53284041 0.268449301,5.29125434 C0.408114701,5.04966827 0.666175961,4.9010727 0.945227961,4.90155495 L7.10331573,4.90155495 C7.38403629,4.90153312 7.65167495,4.78288138 7.84019116,4.57487737 C8.02870737,4.36687335 8.1205434,4.08888984 8.09303845,3.80952 C8.02848614,3.29075451 7.58328748,2.90406082 7.0605934,2.91275184 L1.59712621,2.91275184 L1.59712621,1.16861825 C1.59712189,0.91256837 1.69883523,0.667004348 1.87988962,0.485949522 C2.06094401,0.304894695 2.30650779,0.203184466 2.56255767,0.203184466 L14.3088404,0.203184466 C14.5648899,0.203184466 14.8104533,0.304894375 14.9915076,0.485948698 C15.1725619,0.667003021 15.2742756,0.912566444 15.2742718,1.16861592 L15.2742718,4.11093437 L18.9653647,4.11093437 C19.1296732,4.11093669 19.279884,4.20375355 19.3533934,4.35070136 L20.9253258,7.49457087 C21.0638192,7.77155481 21.1359223,8.07697977 21.1359223,8.38665786 L21.1359223,8.38665786 Z M20.2675394,8.12116427 L18.6966019,4.97931728 L15.2742718,4.97931728 L15.2742718,8.37428505 L20.2675394,8.37428505 L20.2675394,8.12116427 Z M6.9459666,13.0119379 C6.9459666,12.0744506 6.18596412,11.3144831 5.24847689,11.3144831 C4.31098967,11.3144831 3.55101515,12.0744786 3.55101515,13.0119658 C3.55101515,13.9494531 4.31100365,14.7094346 5.24849087,14.7094346 C5.69869306,14.7094346 6.13045583,14.530591 6.44879489,14.212248 C6.76713394,13.893905 6.9459666,13.4621401 6.9459666,13.0119379 L6.9459666,13.0119379 Z" id="Shape"></path>
        </g>
    </g>
</svg>