<svg xmlns="http://www.w3.org/2000/svg" xmlns:xlink="http://www.w3.org/1999/xlink" width="24" height="24" version="1.1" style=""><rect id="backgroundrect" width="100%" height="100%" x="0" y="0" fill="none" stroke="none" class="" style=""/>
    <!-- Generator: Sketch 51 (57462) - http://www.bohemiancoding.com/sketch -->
    <title>icons/favourite</title>
    <desc>Created with Sketch.</desc>
    <defs/>
    
<g class="currentLayer" style=""><title>Layer 1</title><g id="icons/favourite" stroke="none" stroke-width="1" fill="none" fill-rule="evenodd" class="">
        <path d="M12.006335,23 C11.7461174,23 11.4972703,22.8899194 11.3178098,22.6954223 L2.17026102,13.2535123 C-0.616626615,10.3769447 -0.747774268,5.77443662 1.94075262,2.99939498 C4.62927951,0.224353335 9.05551281,0.35972122 11.8751874,3.27013075 L12.006335,3.40549863 L12.1374827,3.27013075 C14.9571572,0.35972122 19.4161774,0.258195306 22.0719174,2.99939498 C24.7276574,5.74059465 24.6292966,10.3769447 21.842409,13.2535123 L12.6948602,22.6954223 C12.5153997,22.8899194 12.2665526,23 12.006335,23 Z M6.66206814,3.03323695 C5.40872259,3.03006456 4.20558831,3.54141465 3.31780298,4.45459974 C1.41616201,6.41743408 1.51452275,9.73394726 3.58009829,11.8321495 L12.006335,20.5295361 L20.4325717,11.8321495 C22.4981473,9.73394726 22.596508,6.41743408 20.694867,4.45459974 C18.7932261,2.49176541 15.5801086,2.59329132 13.5473199,4.69149354 L12.6948602,5.5713848 C12.3057706,5.94123204 11.7068994,5.94123204 11.3178098,5.5713848 L10.4653501,4.69149354 C9.45982413,3.64151045 8.09236226,3.04528784 6.66206814,3.03323695 Z" id="Shape" fill="#83153E" fill-rule="nonzero"/>
        <rect id="Rectangle-3" fill="#D8D8D8" opacity="0" x="0" y="0" width="24" height="24"/>
    </g><path fill="none" fill-opacity="1" stroke="#d50b0b" stroke-opacity="1" stroke-width="1" stroke-dasharray="none" stroke-linejoin="miter" stroke-linecap="butt" stroke-dashoffset="" fill-rule="evenodd" opacity="1" marker-start="" marker-mid="" marker-end="" d="M21,2 C21,2 21,2 21,2 C21,2 21,2 21,2 C21,2 21,2 21,2 C21,2 21,2 21,2 Z" id="svg_1"/><path fill="none" stroke-dashoffset="" fill-rule="evenodd" marker-start="" marker-mid="" marker-end="" id="svg_4" d="M0.35881026796023835,0.3403751868226703 C2.3109018680287483,-5.259887600259101 9.95926076010052,0.3403751868226703 0.35881026796023835,7.540713055927838 C-9.241640224179989,0.3403751868226703 -1.5932813321082444,-5.259887600259101 0.35881026796023835,0.3403751868226703 z" style="color: rgb(0, 0, 0);"/><path fill="none" stroke-dashoffset="" fill-rule="evenodd" marker-start="" marker-mid="" marker-end="" id="svg_8" d="M1.8379409525764476,6.201283671557686 C1.8547477990392298,6.153067308754622 1.9205975745245567,6.201283671557686 1.8379409525764476,6.263276138018767 C1.7552843306283386,6.201283671557686 1.8211341061136654,6.153067308754622 1.8379409525764476,6.201283671557686 z" style="color: rgb(0, 0, 0);"/><path fill="#83153e" stroke-dashoffset="" fill-rule="evenodd" marker-start="" marker-mid="" marker-end="" id="svg_10" d="M11.96090773513554,7.084096684751938 C16.14581194796628,-3.909232354757611 32.54240386381146,7.084096684751938 11.96090773513554,21.218376878407003 C-8.62058839353977,7.084096684751938 7.7760035223048005,-3.909232354757611 11.96090773513554,7.084096684751938 z" style="color: rgb(0, 0, 0);" class="" fill-opacity="1"/><path fill="#41e841" stroke-dashoffset="" fill-rule="evenodd" marker-start="" marker-mid="" marker-end="" id="svg_12" d="M-6.122058975176994,11.481283357092972 C-6.105252078656226,11.43306685068093 -6.039402107042068,11.481283357092972 -6.122058975176994,11.543276008194168 C-6.204715843311923,11.481283357092972 -6.138865871697763,11.43306685068093 -6.122058975176994,11.481283357092972 z" style="color: rgb(0, 0, 0);"/><path fill="#41e841" stroke-dashoffset="" fill-rule="evenodd" marker-start="" marker-mid="" marker-end="" id="svg_14" d="M-3.5228752815743722,10.668630799178901 C-3.5060684293894617,10.620414419959904 -3.4402186314846563,10.668630799178901 -3.5228752815743722,10.730623286746189 C-3.605531931664086,10.668630799178901 -3.5396821337592796,10.620414419959904 -3.5228752815743722,10.668630799178901 z" style="color: rgb(0, 0, 0);"/><path fill="#83153e" fill-opacity="1" stroke="none" stroke-opacity="1" stroke-width="1" stroke-dasharray="none" stroke-linejoin="miter" stroke-linecap="butt" stroke-dashoffset="" fill-rule="evenodd" opacity="1" marker-start="" marker-mid="" marker-end="" d="M9.020408630371094,7.010204076766968 C9.020408630371094,5.0765024193084045 10.362950066835182,3.5102040767669678 12.020408630371094,3.5102040767669678 C13.677867193907005,3.5102040767669678 15.020408630371094,5.0765024193084045 15.020408630371094,7.010204076766968 C15.020408630371094,8.943905734225531 13.677867193907005,10.510204076766968 12.020408630371094,10.510204076766968 C10.362950066835182,10.510204076766968 9.020408630371094,8.943905734225531 9.020408630371094,7.010204076766968 z" id="svg_16" class="selected"/></g></svg>