<?xml version="1.0" encoding="UTF-8"?>
<svg width="24px" height="24px" viewBox="0 0 24 24" version="1.1" xmlns="http://www.w3.org/2000/svg" xmlns:xlink="http://www.w3.org/1999/xlink">
    <!-- Generator: Sketch 51 (57462) - http://www.bohemiancoding.com/sketch -->
    <title>icons/favourite</title>
    <desc>Created with Sketch.</desc>
    <defs></defs>
    <g id="icons/favourite" stroke="none" stroke-width="1" fill="none" fill-rule="evenodd">
        <path d="M12.006335,23 C11.7461174,23 11.4972703,22.8899194 11.3178098,22.6954223 L2.17026102,13.2535123 C-0.616626615,10.3769447 -0.747774268,5.77443662 1.94075262,2.99939498 C4.62927951,0.224353335 9.05551281,0.35972122 11.8751874,3.27013075 L12.006335,3.40549863 L12.1374827,3.27013075 C14.9571572,0.35972122 19.4161774,0.258195306 22.0719174,2.99939498 C24.7276574,5.74059465 24.6292966,10.3769447 21.842409,13.2535123 L12.6948602,22.6954223 C12.5153997,22.8899194 12.2665526,23 12.006335,23 Z M6.66206814,3.03323695 C5.40872259,3.03006456 4.20558831,3.54141465 3.31780298,4.45459974 C1.41616201,6.41743408 1.51452275,9.73394726 3.58009829,11.8321495 L12.006335,20.5295361 L20.4325717,11.8321495 C22.4981473,9.73394726 22.596508,6.41743408 20.694867,4.45459974 C18.7932261,2.49176541 15.5801086,2.59329132 13.5473199,4.69149354 L12.6948602,5.5713848 C12.3057706,5.94123204 11.7068994,5.94123204 11.3178098,5.5713848 L10.4653501,4.69149354 C9.45982413,3.64151045 8.09236226,3.04528784 6.66206814,3.03323695 Z" id="Shape" fill="#83153E" fill-rule="nonzero"></path>
        <rect id="Rectangle-3" fill="#D8D8D8" opacity="0" x="0" y="0" width="24" height="24"></rect>
    </g>
</svg>