<?xml version="1.0" standalone="yes"?><svg xmlns="http://www.w3.org/2000/svg" xmlns:xlink="http://www.w3.org/1999/xlink" version="1.1" x="0px" y="0px" viewBox="0 0 128 160" style="enable-background:new 0 0 128 128;zoom: 1;" xml:space="preserve"><g><path d="M80.4,69.3c-2.7,0-6,1.4-6,8.1c0,6.4,3.2,7.7,5.9,7.7c2.7,0,5.9-1.4,5.9-8c0-2.4-0.5-4.3-1.5-5.7 C83.6,70,82.1,69.3,80.4,69.3z"></path><path d="M125.2,67.5c1.9-1.9,1.9-5,0-6.9l-4.9-5c-1.4-1.4-1.8-3.5-1.1-5.3l2.7-6.5c1-2.5-0.1-5.4-2.6-6.4l-6.5-2.7 c-1.8-0.7-3-2.5-3-4.5v-7c0-2.7-2.2-4.9-4.9-4.9h-7c-2,0-3.8-1.2-4.5-3l-2.7-6.5c-1-2.5-3.9-3.7-6.4-2.6l-6.5,2.7 c-1.8,0.7-3.9,0.3-5.3-1.1l-5-5c-1.9-1.9-5-1.9-6.9,0l-5,5c-1.4,1.4-3.5,1.8-5.3,1.1l-6.5-2.7c-2.5-1-5.4,0.2-6.4,2.6l-2.7,6.5 c-0.8,1.8-2.5,3-4.5,3h-7c-2.7,0-4.9,2.2-4.9,4.9v7c0,2-1.2,3.8-3,4.5l-6.5,2.7c-2.5,1-3.7,3.9-2.6,6.4l2.7,6.5 c0.7,1.8,0.3,3.9-1.1,5.3l-5,5c-1.9,1.9-1.9,5,0,6.9l5,5c1.4,1.4,1.8,3.5,1.1,5.3l-2.7,6.5c-1,2.5,0.1,5.4,2.6,6.4l6.5,2.7 c1.8,0.7,3,2.5,3,4.5v7c0,2.7,2.2,4.9,4.9,4.9h7c2,0,3.8,1.2,4.5,3l2.7,6.5c1,2.5,3.9,3.7,6.4,2.6l6.5-2.7c1.8-0.8,3.9-0.3,5.3,1.1 l5,5c1.9,1.9,5,1.9,6.9,0l5-5c1.4-1.4,3.5-1.8,5.3-1.1l6.5,2.7c2.5,1,5.4-0.2,6.4-2.6l2.7-6.5c0.8-1.8,2.5-3,4.5-3h7 c2.7,0,4.9-2.2,4.9-4.9v-7c0-2,1.2-3.8,3-4.5l6.5-2.7c2.5-1,3.7-3.9,2.6-6.4l-2.7-6.5c-0.8-1.8-0.3-3.9,1.1-5.3L125.2,67.5z M38.9,60.3c-2.1-2.2-3.2-5.2-3.2-9c0-4.1,1.2-7.4,3.4-9.8c2.3-2.4,5.3-3.6,9.1-3.6c3.6,0,6.5,1.1,8.5,3.2c2,2.2,3.1,5.3,3.1,9.2 c0,4.1-1.2,7.4-3.4,9.7c-2.2,2.4-5.3,3.6-9.1,3.6C43.8,63.6,41,62.5,38.9,60.3z M51.9,88c-0.6,0.9-1.5,1.4-2.5,1.4 c-2.4,0-3.8-2.6-2.5-4.6L76,40c0.6-0.8,1.5-1.4,2.5-1.4h0.1c2.4,0,3.8,2.6,2.5,4.6L51.9,88z M88.9,86.5c-2.3,2.4-5.3,3.6-9.1,3.6 c-3.5,0-6.3-1.1-8.4-3.3c-2.1-2.2-3.2-5.2-3.2-9c0-4.1,1.2-7.4,3.4-9.8c2.3-2.4,5.3-3.6,9.1-3.6c3.7,0,6.5,1.1,8.5,3.2 c2,2.1,3,5.2,3,9.2C92.3,80.8,91.2,84.1,88.9,86.5z"></path><path d="M53.7,50.7c0-6.5-3.1-7.8-5.6-7.8c-2.8,0-6,1.4-6,8.1c0,6.4,3.2,7.7,5.8,7.7C50.5,58.7,53.7,57.3,53.7,50.7z"></path></g></svg>