<?xml version="1.0" encoding="UTF-8"?>
<svg width="24px" height="24px" viewBox="0 0 24 24" version="1.1" xmlns="http://www.w3.org/2000/svg" xmlns:xlink="http://www.w3.org/1999/xlink">
    <title>icons/order-amount</title>
    <g id="icons/order-amount" stroke="none" stroke-width="1" fill="none" fill-rule="evenodd">
        <rect id="Container" fill="#D8D8D8" opacity="0" x="0" y="0" width="24" height="24"></rect>
        <g id="Group" transform="translate(2.500000, 3.000000)" fill="#000000" fill-rule="nonzero">
            <g id="noun_wine-bottle_740855" transform="translate(-0.000000, 0.000000)">
                <path d="M5.39170964,6.29238548 C5.24518648,5.85281602 4.65909387,5.07613517 4.43957947,4.71009762 C4.21979474,4.34378974 4.13166458,4.00667835 4.13166458,3.74309887 C4.13166458,3.4795194 4.13166458,2.42466083 4.13166458,1.83856821 C4.13166458,1.5490363 4.13166458,1.0821627 4.13166458,1.0821627 C4.13166458,1.0821627 4.22330914,0.889952441 4.22330914,0.763434293 C4.22330914,0.636916145 4.20141176,0.400911139 4.09165457,0.301697121 C3.98189737,0.202753442 3.83861827,0.1040801 3.62451064,0.1040801 C3.41013267,0.1040801 3.30037547,0.1040801 3.30037547,0.1040801 C3.30037547,0.1040801 3.19061827,0.1040801 2.9762403,0.1040801 C2.76213267,0.1040801 2.6191239,0.20302378 2.50909637,0.301697121 C2.39933917,0.400640801 2.3774418,0.636916145 2.3774418,0.763434293 C2.3774418,0.889682103 2.46881602,1.0821627 2.46881602,1.0821627 C2.46881602,1.0821627 2.46881602,1.5490363 2.46881602,1.83856821 C2.46881602,2.42439049 2.46881602,3.4795194 2.46881602,3.74309887 C2.46881602,4.00694869 2.3809562,4.34378974 2.16117146,4.71009762 C1.94138673,5.07613517 1.35529412,5.85281602 1.20877096,6.29238548 C1.06224781,6.73195494 1.04764956,7.15665582 1.04764956,7.49376721 C1.04764956,7.8308786 1.04764956,16.6360551 1.04764956,16.8850363 C1.04764956,17.1342879 1.16497622,17.3100075 1.45802253,17.4124656 C1.7507985,17.5149237 2.02897622,17.6760451 3.30037547,17.6763154 C4.57177472,17.6760451 4.84995244,17.5149237 5.14272841,17.4124656 C5.43577472,17.3100075 5.55283104,17.1342879 5.55283104,16.8850363 C5.55283104,16.6360551 5.55283104,7.8308786 5.55283104,7.49376721 C5.55283104,7.15665582 5.53823279,6.73195494 5.39170964,6.29238548 Z M4.49959449,6.62841552 C4.42633292,6.40754944 4.1681602,6.0244806 3.97973467,5.74468085 C3.89025282,5.61167459 3.80996245,5.49218523 3.75616521,5.40270338 C3.69858323,5.30673342 3.72967209,5.18210763 3.82591239,5.12452566 C3.92215269,5.06613267 4.04650814,5.09830288 4.10409011,5.1940025 C4.15491364,5.27888861 4.23141927,5.39188986 4.31603504,5.51813767 C4.52879099,5.83389237 4.79345181,6.2269637 4.88455569,6.50000501 C5.00701877,6.86820526 5.02377972,7.22478098 5.02377972,7.52512641 C5.02377972,7.63704631 4.93294618,7.72787985 4.82102628,7.72787985 C4.70910638,7.72787985 4.61827284,7.63704631 4.61827284,7.52512641 C4.6180025,7.24397497 4.60367459,6.94038548 4.49959449,6.62841552 Z M4.82102628,8.38047559 C4.70910638,8.38047559 4.61827284,8.28964205 4.61827284,8.17772215 C4.61827284,8.06580225 4.70910638,7.97496871 4.82102628,7.97496871 C4.93294618,7.97496871 5.02377972,8.06580225 5.02377972,8.17772215 C5.02377972,8.28964205 4.93294618,8.38047559 4.82102628,8.38047559 Z" id="Shape"></path>
            </g>
            <g id="noun_wine-bottle_740855-copy" transform="translate(5.000000, 0.000000)">
                <path d="M5.39170964,6.29238548 C5.24518648,5.85281602 4.65909387,5.07613517 4.43957947,4.71009762 C4.21979474,4.34378974 4.13166458,4.00667835 4.13166458,3.74309887 C4.13166458,3.4795194 4.13166458,2.42466083 4.13166458,1.83856821 C4.13166458,1.5490363 4.13166458,1.0821627 4.13166458,1.0821627 C4.13166458,1.0821627 4.22330914,0.889952441 4.22330914,0.763434293 C4.22330914,0.636916145 4.20141176,0.400911139 4.09165457,0.301697121 C3.98189737,0.202753442 3.83861827,0.1040801 3.62451064,0.1040801 C3.41013267,0.1040801 3.30037547,0.1040801 3.30037547,0.1040801 C3.30037547,0.1040801 3.19061827,0.1040801 2.9762403,0.1040801 C2.76213267,0.1040801 2.6191239,0.20302378 2.50909637,0.301697121 C2.39933917,0.400640801 2.3774418,0.636916145 2.3774418,0.763434293 C2.3774418,0.889682103 2.46881602,1.0821627 2.46881602,1.0821627 C2.46881602,1.0821627 2.46881602,1.5490363 2.46881602,1.83856821 C2.46881602,2.42439049 2.46881602,3.4795194 2.46881602,3.74309887 C2.46881602,4.00694869 2.3809562,4.34378974 2.16117146,4.71009762 C1.94138673,5.07613517 1.35529412,5.85281602 1.20877096,6.29238548 C1.06224781,6.73195494 1.04764956,7.15665582 1.04764956,7.49376721 C1.04764956,7.8308786 1.04764956,16.6360551 1.04764956,16.8850363 C1.04764956,17.1342879 1.16497622,17.3100075 1.45802253,17.4124656 C1.7507985,17.5149237 2.02897622,17.6760451 3.30037547,17.6763154 C4.57177472,17.6760451 4.84995244,17.5149237 5.14272841,17.4124656 C5.43577472,17.3100075 5.55283104,17.1342879 5.55283104,16.8850363 C5.55283104,16.6360551 5.55283104,7.8308786 5.55283104,7.49376721 C5.55283104,7.15665582 5.53823279,6.73195494 5.39170964,6.29238548 Z M4.49959449,6.62841552 C4.42633292,6.40754944 4.1681602,6.0244806 3.97973467,5.74468085 C3.89025282,5.61167459 3.80996245,5.49218523 3.75616521,5.40270338 C3.69858323,5.30673342 3.72967209,5.18210763 3.82591239,5.12452566 C3.92215269,5.06613267 4.04650814,5.09830288 4.10409011,5.1940025 C4.15491364,5.27888861 4.23141927,5.39188986 4.31603504,5.51813767 C4.52879099,5.83389237 4.79345181,6.2269637 4.88455569,6.50000501 C5.00701877,6.86820526 5.02377972,7.22478098 5.02377972,7.52512641 C5.02377972,7.63704631 4.93294618,7.72787985 4.82102628,7.72787985 C4.70910638,7.72787985 4.61827284,7.63704631 4.61827284,7.52512641 C4.6180025,7.24397497 4.60367459,6.94038548 4.49959449,6.62841552 Z M4.82102628,8.38047559 C4.70910638,8.38047559 4.61827284,8.28964205 4.61827284,8.17772215 C4.61827284,8.06580225 4.70910638,7.97496871 4.82102628,7.97496871 C4.93294618,7.97496871 5.02377972,8.06580225 5.02377972,8.17772215 C5.02377972,8.28964205 4.93294618,8.38047559 4.82102628,8.38047559 Z" id="Shape"></path>
            </g>
            <g id="noun_wine-bottle_740855-copy-2" transform="translate(10.000000, 0.000000)">
                <path d="M5.39170964,6.29238548 C5.24518648,5.85281602 4.65909387,5.07613517 4.43957947,4.71009762 C4.21979474,4.34378974 4.13166458,4.00667835 4.13166458,3.74309887 C4.13166458,3.4795194 4.13166458,2.42466083 4.13166458,1.83856821 C4.13166458,1.5490363 4.13166458,1.0821627 4.13166458,1.0821627 C4.13166458,1.0821627 4.22330914,0.889952441 4.22330914,0.763434293 C4.22330914,0.636916145 4.20141176,0.400911139 4.09165457,0.301697121 C3.98189737,0.202753442 3.83861827,0.1040801 3.62451064,0.1040801 C3.41013267,0.1040801 3.30037547,0.1040801 3.30037547,0.1040801 C3.30037547,0.1040801 3.19061827,0.1040801 2.9762403,0.1040801 C2.76213267,0.1040801 2.6191239,0.20302378 2.50909637,0.301697121 C2.39933917,0.400640801 2.3774418,0.636916145 2.3774418,0.763434293 C2.3774418,0.889682103 2.46881602,1.0821627 2.46881602,1.0821627 C2.46881602,1.0821627 2.46881602,1.5490363 2.46881602,1.83856821 C2.46881602,2.42439049 2.46881602,3.4795194 2.46881602,3.74309887 C2.46881602,4.00694869 2.3809562,4.34378974 2.16117146,4.71009762 C1.94138673,5.07613517 1.35529412,5.85281602 1.20877096,6.29238548 C1.06224781,6.73195494 1.04764956,7.15665582 1.04764956,7.49376721 C1.04764956,7.8308786 1.04764956,16.6360551 1.04764956,16.8850363 C1.04764956,17.1342879 1.16497622,17.3100075 1.45802253,17.4124656 C1.7507985,17.5149237 2.02897622,17.6760451 3.30037547,17.6763154 C4.57177472,17.6760451 4.84995244,17.5149237 5.14272841,17.4124656 C5.43577472,17.3100075 5.55283104,17.1342879 5.55283104,16.8850363 C5.55283104,16.6360551 5.55283104,7.8308786 5.55283104,7.49376721 C5.55283104,7.15665582 5.53823279,6.73195494 5.39170964,6.29238548 Z M4.49959449,6.62841552 C4.42633292,6.40754944 4.1681602,6.0244806 3.97973467,5.74468085 C3.89025282,5.61167459 3.80996245,5.49218523 3.75616521,5.40270338 C3.69858323,5.30673342 3.72967209,5.18210763 3.82591239,5.12452566 C3.92215269,5.06613267 4.04650814,5.09830288 4.10409011,5.1940025 C4.15491364,5.27888861 4.23141927,5.39188986 4.31603504,5.51813767 C4.52879099,5.83389237 4.79345181,6.2269637 4.88455569,6.50000501 C5.00701877,6.86820526 5.02377972,7.22478098 5.02377972,7.52512641 C5.02377972,7.63704631 4.93294618,7.72787985 4.82102628,7.72787985 C4.70910638,7.72787985 4.61827284,7.63704631 4.61827284,7.52512641 C4.6180025,7.24397497 4.60367459,6.94038548 4.49959449,6.62841552 Z M4.82102628,8.38047559 C4.70910638,8.38047559 4.61827284,8.28964205 4.61827284,8.17772215 C4.61827284,8.06580225 4.70910638,7.97496871 4.82102628,7.97496871 C4.93294618,7.97496871 5.02377972,8.06580225 5.02377972,8.17772215 C5.02377972,8.28964205 4.93294618,8.38047559 4.82102628,8.38047559 Z" id="Shape"></path>
            </g>
            <path d="M16.8702687,3.69102296 C16.9680372,3.75114823 17.0658057,3.75114823 17.1635743,3.69102296 L17.1635743,3.69102296 L17.6486567,2.21419624 C17.6110534,2.13903967 17.5302063,2.08455115 17.4061155,2.05073069 C17.2820246,2.01691023 17.148533,2 17.0056405,2 C16.862748,2 16.7311365,2.01878914 16.610806,2.05636743 C16.4904755,2.09394572 16.4152689,2.14655532 16.3851863,2.21419624 L16.3851863,2.21419624 L16.8702687,3.69102296 Z M16.5656821,4.04050104 C16.6634506,3.98789144 16.7123349,3.90521921 16.7123349,3.79248434 L16.7123349,3.79248434 L15.6857652,2.59749478 C15.5955173,2.60501044 15.5015091,2.65574113 15.4037405,2.74968685 C15.305972,2.84363257 15.2232448,2.9526096 15.1555589,3.07661795 C15.0878729,3.2006263 15.0408688,3.32463466 15.0145465,3.44864301 C14.9882242,3.57265136 14.9976251,3.66471816 15.042749,3.72484342 L15.042749,3.72484342 L16.5656821,4.04050104 Z M17.4681609,4.05177453 L18.979813,3.71356994 C19.0023749,3.62338205 19.0004948,3.5125261 18.9741725,3.38100209 C18.9478502,3.24947808 18.9046064,3.12546973 18.8444411,3.00897704 C18.7842759,2.89248434 18.7109495,2.79478079 18.6244619,2.71586639 C18.5379744,2.63695198 18.4496066,2.60125261 18.3593588,2.60876827 L18.3593588,2.60876827 L17.3327891,3.80375783 C17.3327891,3.90146138 17.377913,3.98413361 17.4681609,4.05177453 L17.4681609,4.05177453 Z M15.7196081,5.61878914 L16.7123349,4.42379958 C16.7123349,4.32609603 16.6596903,4.24718163 16.5544011,4.18705637 L16.5544011,4.18705637 L15.031468,4.48016701 C14.9938647,4.54780793 14.9938647,4.64551148 15.031468,4.77327766 C15.0690713,4.90104384 15.1254762,5.02693111 15.2006828,5.15093946 C15.2758894,5.27494781 15.3604968,5.38392484 15.454505,5.47787056 C15.5485132,5.57181628 15.6368809,5.61878914 15.7196081,5.61878914 L15.7196081,5.61878914 Z M18.3367968,5.60751566 C18.4270447,5.60751566 18.5191727,5.56430063 18.6131809,5.47787056 C18.7071892,5.3914405 18.7861561,5.28810021 18.8500816,5.16784969 C18.9140072,5.04759916 18.9591312,4.92359081 18.9854535,4.79582463 C19.0117758,4.66805846 19.0023749,4.56283925 18.957251,4.48016701 L18.957251,4.48016701 L17.4794419,4.20960334 C17.389194,4.2697286 17.3440701,4.34864301 17.3440701,4.44634656 L17.3440701,4.44634656 L18.3367968,5.60751566 Z M16.9546504,6.19959916 L17.0394834,6.1993737 C17.1823759,6.19561587 17.3158676,6.17682672 17.4399584,6.14300626 C17.5640493,6.1091858 17.641136,6.06221294 17.6712186,6.00208768 L17.6712186,6.00208768 L17.1748553,4.54780793 C17.0770867,4.48768267 16.9755579,4.48768267 16.8702687,4.54780793 L16.8702687,4.54780793 L16.3851863,6.02463466 C16.4227896,6.08475992 16.5055168,6.12985386 16.633368,6.15991649 C16.7612191,6.18997912 16.896591,6.20313152 17.0394834,6.1993737 L16.9546504,6.19959916 Z" id="*"></path>
        </g>
    </g>
</svg>